<svg height='300px' width='300px'  fill="#000000" xmlns="http://www.w3.org/2000/svg" xmlns:xlink="http://www.w3.org/1999/xlink" version="1.1" x="0px" y="0px" viewBox="0 0 100 100" enable-background="new 0 0 100 100" xml:space="preserve"><path d="M58.886,60.421C56.65,62.779,53.498,64.26,50,64.26c-6.76,0-12.26-5.5-12.26-12.26c0-3.498,1.48-6.65,3.838-8.886  l-2.12-2.12C36.558,43.773,34.74,47.675,34.74,52c0,8.414,6.846,15.26,15.26,15.26c4.325,0,8.227-1.817,11.006-4.718L58.886,60.421z  "></path><path d="M45.97,40.435c1.265-0.442,2.617-0.695,4.03-0.695c6.76,0,12.26,5.5,12.26,12.26c0,1.413-0.252,2.766-0.694,4.03  l2.301,2.302C64.752,56.4,65.26,54.26,65.26,52c0-8.414-6.846-15.26-15.26-15.26c-2.26,0-4.4,0.507-6.332,1.393L45.97,40.435z"></path><path d="M73.165,74.7H22.267c-2.996,0-5.434-2.438-5.434-5.434v-31.6c0-2.996,2.438-5.434,5.434-5.434h8.432l-3-3h-5.432  c-4.65,0-8.434,3.783-8.434,8.434v31.6c0,4.65,3.783,8.434,8.434,8.434h53.898L73.165,74.7z"></path><path d="M35.757,30.222l4.503-4.922h19.479l6.344,6.934h11.65c2.996,0,5.434,2.438,5.434,5.434v31.6  c0,2.258-1.385,4.197-3.349,5.016l2.222,2.222c2.466-1.473,4.127-4.162,4.127-7.238v-31.6c0-4.65-3.783-8.434-8.434-8.434H67.405  L61.062,22.3H38.938l-5.305,5.798L35.757,30.222z"></path><rect x="-2.414" y="50.5" transform="matrix(0.7071 0.7071 -0.7071 0.7071 51.4142 -20.1249)" width="104.829" height="3"></rect></svg>